<?xml version="1.0" standalone="no"?><!DOCTYPE svg PUBLIC "-//W3C//DTD SVG 1.1//EN" "http://www.w3.org/Graphics/SVG/1.1/DTD/svg11.dtd"><svg t="1785719217195" class="icon" viewBox="0 0 1024 1024" version="1.1" xmlns="http://www.w3.org/2000/svg" p-id="6190" xmlns:xlink="http://www.w3.org/1999/xlink" width="200" height="200"><path d="M535.04 1024l-28.16-10.24s2.56-138.24-46.08-148.48c-33.28-38.4 5.12-1635.84 125.44-5.12 0 0-40.96 20.48-48.64 56.32-7.68 33.28-2.56 107.52-2.56 107.52z" fill="#FFFFFF" p-id="6191"></path><path d="M535.04 1024l-28.16-10.24s2.56-138.24-46.08-148.48c-33.28-38.4 5.12-1635.84 125.44-5.12 0 0-40.96 20.48-48.64 56.32-7.68 33.28-2.56 107.52-2.56 107.52z" fill="#A6A385" p-id="6192"></path><path d="M550.4 890.88s238.08-156.16 181.76-483.84c-53.76-238.08-179.2-314.88-194.56-345.6-15.36-20.48-30.72-58.88-30.72-58.88l10.24 660.48s-20.48 202.24 33.28 227.84" fill="#FFFFFF" p-id="6193"></path><path d="M550.4 890.88s238.08-156.16 181.76-483.84c-53.76-238.08-179.2-314.88-194.56-345.6-15.36-20.48-30.72-58.88-30.72-58.88l10.24 660.48s-20.48 202.24 33.28 227.84" fill="#499D4A" p-id="6194"></path><path d="M494.08 898.56s-225.28-153.6-209.92-422.4C296.96 207.36 453.12 74.24 483.84 51.2c20.48-20.48 20.48-28.16 23.04-51.2 12.8 30.72 10.24 448 12.8 496.64 5.12 189.44-10.24 366.08-25.6 401.92z" fill="#FFFFFF" p-id="6195"></path><path d="M494.08 898.56s-225.28-153.6-209.92-422.4C296.96 207.36 453.12 74.24 483.84 51.2c20.48-20.48 20.48-28.16 23.04-51.2 12.8 30.72 10.24 448 12.8 496.64 5.12 189.44-10.24 366.08-25.6 401.92z" fill="#58AA50" p-id="6196"></path></svg>